HIERARCHY
ROOT Hips
{
	OFFSET 0.000000 8.830580 0.000000
	CHANNELS 6 Xposition Yposition Zposition Zrotation Yrotation Xrotation 
	JOINT Spine
	{
		OFFSET 0.000000 0.010000 0.000000
		CHANNELS 3 Zrotation Yrotation Xrotation
		JOINT Spine1
		{
			OFFSET 0.000000 2.459130 0.000000
			CHANNELS 3 Zrotation Yrotation Xrotation
			JOINT Neck
			{
				OFFSET 0.000000 2.484630 0.000000
				CHANNELS 3 Zrotation Yrotation Xrotation
				JOINT Head_virtual
				{
					OFFSET 0.000000 0.000000 0.000000
					CHANNELS 3 Zrotation Yrotation Xrotation
					JOINT Head
					{
						OFFSET 0.000000 0.927525 0.000000
						CHANNELS 3 Zrotation Yrotation Xrotation
						End Site
						{
							OFFSET 0.000000 0.000000 0.000000
						}
					}
				}
				JOINT LeftUpArm_virtual
				{
					OFFSET 0.000000 0.000000 0.000000
					CHANNELS 3 Zrotation Yrotation Xrotation
					JOINT LeftUpArm
					{
						OFFSET 1.248820 0.000000 0.000000
						CHANNELS 3 Zrotation Yrotation Xrotation
						JOINT LeftForeArm
						{
							OFFSET 2.597580 0.000000 0.000000
							CHANNELS 3 Zrotation Yrotation Xrotation
							JOINT LeftHand
							{
								OFFSET 2.455420 0.000000 0.000000
								CHANNELS 3 Zrotation Yrotation Xrotation
								End Site
								{
									OFFSET 0.000000 0.000000 0.000000
								}
							}
						}
					}
				}
				JOINT RightUpArm_virtual
				{
					OFFSET -0.000000 -0.000000 -0.000000
					CHANNELS 3 Zrotation Yrotation Xrotation
					JOINT RightUpArm
					{
						OFFSET -1.248820 -0.000000 -0.000000
						CHANNELS 3 Zrotation Yrotation Xrotation
						JOINT RightForeArm
						{
							OFFSET -2.597580 -0.000000 -0.000000
							CHANNELS 3 Zrotation Yrotation Xrotation
							JOINT RightHand
							{
								OFFSET -2.455420 -0.000000 -0.000000
								CHANNELS 3 Zrotation Yrotation Xrotation
								End Site
								{
									OFFSET 0.000000 0.000000 0.000000
								}
							}
						}
					}
				}
			}
		}
	}
	JOINT LeftUpLeg
	{
		OFFSET 1.271939 0.000000 0.000000
		CHANNELS 3 Zrotation Yrotation Xrotation
		JOINT LeftLowLeg
		{
			OFFSET 0.000000 -4.342910 0.000000
			CHANNELS 3 Zrotation Yrotation Xrotation
			JOINT LeftFoot
			{
				OFFSET 0.000000 -4.487670 0.000000
				CHANNELS 3 Zrotation Yrotation Xrotation
				JOINT LeftToeBase
				{
					OFFSET 0.000000 0.000000 1.515070
					CHANNELS 3 Zrotation Yrotation Xrotation
					End Site
					{
						OFFSET 0.000000 0.000000 0.000000
					}
				}
			}
		}
	}
	JOINT RightUpLeg
	{
		OFFSET -1.271939 0.000000 0.000000
		CHANNELS 3 Zrotation Yrotation Xrotation
		JOINT RightLowLeg
		{
			OFFSET 0.000000 -4.342910 0.000000
			CHANNELS 3 Zrotation Yrotation Xrotation
			JOINT RightFoot
			{
				OFFSET 0.000000 -4.487670 0.000000
				CHANNELS 3 Zrotation Yrotation Xrotation
				JOINT RightToeBase
				{
					OFFSET 0.000000 0.000000 1.515070
					CHANNELS 3 Zrotation Yrotation Xrotation
					End Site
					{
						OFFSET 0.000000 0.000000 0.000000
					}
				}
			}
		}
	}
}
MOTION
Frames: 10
Frame Time: 0.041667
-19.344498 9.237721 39.845018 -175.469450 0.055944 -175.978608 2.299376 -1.441433 -6.265341 -0.313853 -1.682245 5.988530 0.000000 0.000000 0.000000 -1.032730 1.812337 -8.744521 6.123860 5.548962 -53.820835 -1.617260 11.537800 -2.547300 -15.657000 1.506310 -32.635700 0.000000 -20.987700 0.000000 27.796200 7.525190 18.493299 9.491640 -10.537000 0.648811 11.189200 -1.275140 -36.785301 0.000000 18.777800 0.000000 -16.998199 -1.825130 22.369400 3.067538 3.067694 -2.669278 0.000000 0.000000 7.068620 10.429748 -1.799226 7.253135 0.000000 0.000000 -37.039301 3.467001 7.375270 -1.901729 0.000000 0.000000 7.561870 8.312626 -6.896819 9.502611 0.000000 0.000000 -28.113900 
-19.343307 9.237551 39.846883 -175.476010 -0.029533 -175.953547 2.297618 -1.408811 -6.289949 -0.325866 -1.649611 5.982718 0.000000 0.000000 0.000000 -0.929250 1.701611 -8.848274 6.229408 5.457644 -53.701433 -1.586900 11.438500 -2.520000 -15.757200 1.524360 -32.643799 0.000000 -20.963499 0.000000 27.838301 7.615910 18.845400 9.462040 -10.556900 0.637092 11.304800 -1.360510 -36.776001 0.000000 18.777700 0.000000 -17.033400 -1.905270 22.267799 3.069182 3.030707 -2.728499 0.000000 0.000000 7.074990 10.442057 -1.830717 7.261917 0.000000 0.000000 -37.045401 3.468252 7.319236 -1.919254 0.000000 0.000000 7.540540 8.324723 -6.908871 9.501898 0.000000 0.000000 -28.114700 
-19.342164 9.237961 39.848685 -175.484577 -0.124395 -175.913165 2.334257 -1.426763 -6.278884 -0.416374 -1.675415 5.862785 0.000000 0.000000 0.000000 -0.897601 1.705245 -8.765902 6.284026 5.471162 -53.701675 -1.586390 11.439800 -2.475110 -15.749200 1.561250 -32.497601 0.000000 -20.984600 0.000000 28.011400 7.926490 19.120501 9.494040 -10.468300 0.689180 11.362100 -1.447380 -36.786301 0.000000 18.741501 0.000000 -17.043699 -1.907900 22.248699 3.068756 3.017843 -2.802369 0.000000 0.000000 7.072040 10.455654 -1.896801 7.288285 0.000000 0.000000 -37.063299 3.468683 7.278985 -1.941220 0.000000 0.000000 7.500220 8.322888 -6.955897 9.507712 0.000000 0.000000 -28.105900 
-19.341193 9.238318 39.849749 -175.497481 -0.214094 -175.873233 2.362649 -1.398226 -6.311717 -0.495626 -1.652941 5.819670 0.000000 0.000000 0.000000 -0.831549 1.678964 -8.708826 6.351639 5.469258 -53.672959 -1.560360 11.381000 -2.444060 -15.779700 1.448180 -32.731499 0.000000 -20.823999 0.000000 28.235600 8.154540 19.375299 9.513490 -10.485800 0.673672 11.448000 -1.472400 -37.009701 0.000000 18.674500 0.000000 -16.970800 -1.786510 22.451000 3.064492 3.007624 -2.853213 0.000000 0.000000 7.036530 10.432119 -1.978496 7.322299 0.000000 0.000000 -37.083000 3.464789 7.248692 -1.950505 0.000000 0.000000 7.446480 8.329502 -7.004204 9.509217 0.000000 0.000000 -28.077200 
-19.340315 9.238352 39.850844 -175.503290 -0.306146 -175.828828 2.327799 -1.390189 -6.387778 -0.430694 -1.637684 5.869506 0.000000 0.000000 0.000000 -0.800065 1.630480 -8.721796 6.342943 5.437100 -53.650050 -1.604020 11.353700 -2.484870 -15.819800 1.353010 -32.828602 0.000000 -20.724800 0.000000 28.445700 8.352290 19.476500 9.457360 -10.549300 0.651754 11.524800 -1.429950 -37.088001 0.000000 18.657900 0.000000 -16.979601 -1.803640 22.495800 3.065862 2.973916 -2.898917 0.000000 0.000000 6.983520 10.432777 -2.029250 7.359071 0.000000 0.000000 -37.103600 3.466143 7.167740 -1.959318 0.000000 0.000000 7.383230 8.327089 -7.017507 9.522702 0.000000 0.000000 -28.073800 
-19.339460 9.238459 39.851709 -175.509652 -0.391543 -175.806136 2.328101 -1.392659 -6.407511 -0.437883 -1.640332 5.845154 0.000000 0.000000 0.000000 -0.794693 1.641134 -8.681667 6.365805 5.446865 -53.649085 -1.595580 11.356800 -2.506000 -15.858300 1.291100 -32.890800 0.000000 -20.668100 0.000000 28.463301 8.506080 19.557199 9.455180 -10.578000 0.665157 11.548800 -1.409130 -37.049099 0.000000 18.652399 0.000000 -16.960800 -1.785880 22.504801 3.067370 2.956582 -2.931956 0.000000 0.000000 6.954400 10.452586 -2.084906 7.380903 0.000000 0.000000 -37.115400 3.471036 7.077018 -1.950617 0.000000 0.000000 7.328730 8.309681 -7.030522 9.530349 0.000000 0.000000 -28.069400 
-19.338589 9.238555 39.852675 -175.511499 -0.456319 -175.810463 2.302164 -1.418389 -6.399709 -0.388106 -1.661003 5.828567 0.000000 0.000000 0.000000 -0.825484 1.669165 -8.654280 6.346644 5.458885 -53.644465 -1.644040 11.417400 -2.523880 -15.841500 1.250910 -32.867401 0.000000 -20.664101 0.000000 28.383600 8.536750 19.569099 9.438640 -10.557900 0.692129 11.547900 -1.373740 -37.041901 0.000000 18.653000 0.000000 -16.922899 -1.819760 22.526899 3.072278 2.933029 -2.948456 0.000000 0.000000 6.953790 10.449692 -2.114082 7.389358 0.000000 0.000000 -37.122000 3.485917 7.010251 -1.939696 0.000000 0.000000 7.318450 8.271822 -7.056655 9.529530 0.000000 0.000000 -28.072400 
-19.337873 9.238453 39.853902 -175.510656 -0.518376 -175.843957 2.331363 -1.399775 -6.356305 -0.444603 -1.648517 5.798378 0.000000 0.000000 0.000000 -0.781135 1.666519 -8.626262 6.375469 5.482694 -53.650095 -1.636150 11.378600 -2.520720 -15.818400 1.260440 -32.833099 0.000000 -20.692101 0.000000 28.322300 8.490390 19.551399 9.470930 -10.560900 0.706912 11.546700 -1.402450 -36.996101 0.000000 18.647499 0.000000 -16.804899 -1.741320 22.478201 3.079534 2.889204 -2.960897 0.000000 0.000000 7.004600 10.445005 -2.115773 7.377838 0.000000 0.000000 -37.127300 3.504832 6.909449 -1.921873 0.000000 0.000000 7.345110 8.237565 -7.051457 9.524161 0.000000 0.000000 -28.057600 
-19.337177 9.238695 39.854903 -175.503436 -0.574168 -175.893675 2.345382 -1.407852 -6.368321 -0.465574 -1.658599 5.894499 0.000000 0.000000 0.000000 -0.753654 1.674455 -8.630892 6.365850 5.518165 -53.672164 -1.623400 11.358100 -2.540740 -15.854100 1.304690 -32.897202 0.000000 -20.766300 0.000000 28.279699 8.464850 19.411100 9.489510 -10.484500 0.700796 11.564900 -1.451380 -37.022900 0.000000 18.696400 0.000000 -16.806700 -1.788470 22.434700 3.093373 2.827678 -2.952388 0.000000 0.000000 7.048610 10.450020 -2.098474 7.378486 0.000000 0.000000 -37.136900 3.528024 6.823511 -1.887494 0.000000 0.000000 7.371450 8.216939 -7.043231 9.530793 0.000000 0.000000 -28.050300 
-19.336885 9.238499 39.855732 -175.496342 -0.626277 -175.931974 2.278099 -1.370955 -6.389147 -0.318398 -1.608072 6.021700 0.000000 0.000000 0.000000 -0.720803 1.620713 -8.739481 6.379521 5.474725 -53.636799 -1.698440 11.274500 -2.596100 -15.882700 1.290170 -32.948898 0.000000 -20.833799 0.000000 28.169201 8.417370 19.108601 9.413940 -10.579200 0.630453 11.606200 -1.436840 -37.060200 0.000000 18.689899 0.000000 -16.838800 -1.724330 22.369400 3.103893 2.793082 -2.952841 0.000000 0.000000 7.094540 10.455932 -2.097974 7.358399 0.000000 0.000000 -37.128201 3.547474 6.820884 -1.855920 0.000000 0.000000 7.386070 8.243371 -7.087711 9.514776 0.000000 0.000000 -28.041800 
